<svg version="1.1" id="Layer_1" xmlns="http://www.w3.org/2000/svg" xmlns:xlink="http://www.w3.org/1999/xlink" x="0px" y="0px"
	 width="100%" viewBox="0 0 512 512" enable-background="new 0 0 512 512" xml:space="preserve">
<path fill="#000000" opacity="1.000000" stroke="none" 
	d="
M289.000000,513.000000 
	C192.690048,513.000000 96.880096,513.000000 1.035069,513.000000 
	C1.035069,342.398346 1.035069,171.796707 1.035069,1.097524 
	C171.559967,1.097524 342.120026,1.097524 512.840027,1.097524 
	C512.840027,171.666550 512.840027,342.333252 512.840027,513.000000 
	C438.463348,513.000000 363.981659,513.000000 289.000000,513.000000 
M279.011261,73.022919 
	C278.673767,64.447739 278.856018,55.812435 277.872742,47.311951 
	C276.516296,35.585503 263.605560,24.985586 252.263840,24.989159 
	C185.452347,25.010210 118.640846,24.994843 51.829350,25.003674 
	C37.879238,25.005516 25.004084,37.908638 25.003225,51.885132 
	C24.996777,157.017441 24.988930,262.149750 25.012537,367.282043 
	C25.015614,380.987122 37.748837,394.006165 51.930782,394.005157 
	C83.253639,394.003021 114.576492,394.026978 145.991211,394.935181 
	C145.196411,410.679565 154.352982,421.496124 167.063736,425.934021 
	C188.735657,433.500702 210.534470,440.705627 232.303574,447.992004 
	C272.296875,461.378326 312.257050,474.868683 352.376465,487.866821 
	C357.203583,489.430725 363.126251,489.148193 368.204102,488.095551 
	C380.175049,485.614014 386.346283,476.798920 390.016815,465.766541 
	C398.973755,438.844696 407.964752,411.933929 417.041901,385.052399 
	C425.963318,358.631897 435.092621,332.281433 443.979004,305.849243 
	C458.839508,261.647491 473.722626,217.451813 488.157928,173.110886 
	C489.673920,168.454147 489.054077,162.673767 488.028320,157.702972 
	C485.541077,145.650146 476.662872,139.656006 465.636688,135.969986 
	C437.974243,126.722473 410.365509,117.314484 382.723572,108.005440 
	C359.943390,100.333702 337.168976,92.643646 314.347748,85.095573 
	C302.655457,81.228394 290.866211,77.654411 279.011261,73.022919 
z"/>
<path fill="#EDEDED" opacity="1.000000" stroke="none" 
	d="
M279.120789,73.947929 
	C290.866211,77.654411 302.655457,81.228394 314.347748,85.095573 
	C337.168976,92.643646 359.943390,100.333702 382.723572,108.005440 
	C410.365509,117.314484 437.974243,126.722473 465.636688,135.969986 
	C476.662872,139.656006 485.541077,145.650146 488.028320,157.702972 
	C489.054077,162.673767 489.673920,168.454147 488.157928,173.110886 
	C473.722626,217.451813 458.839508,261.647491 443.979004,305.849243 
	C435.092621,332.281433 425.963318,358.631897 417.041901,385.052399 
	C407.964752,411.933929 398.973755,438.844696 390.016815,465.766541 
	C386.346283,476.798920 380.175049,485.614014 368.204102,488.095551 
	C363.126251,489.148193 357.203583,489.430725 352.376465,487.866821 
	C312.257050,474.868683 272.296875,461.378326 232.303574,447.992004 
	C210.534470,440.705627 188.735657,433.500702 167.063736,425.934021 
	C154.352982,421.496124 145.196411,410.679565 146.228455,394.245850 
	C153.328247,373.133209 160.169434,352.702698 167.059326,332.288605 
	C173.903397,312.010254 180.852539,291.767181 187.641846,271.470612 
	C190.575943,262.699127 193.224274,253.832077 196.141754,244.675781 
	C201.292221,229.796509 206.380432,215.275833 211.288132,200.694397 
	C214.714981,190.512726 217.894699,180.247879 221.427368,169.766357 
	C222.822479,166.245193 224.015091,162.991364 225.120865,159.708267 
	C231.150177,141.807022 237.002762,123.844131 243.251068,106.019852 
	C245.696060,99.045059 248.076202,91.742729 252.150787,85.714996 
	C258.354156,76.538033 268.093018,73.223236 279.120789,73.947929 
M345.224762,447.236877 
	C345.224762,447.236877 345.531403,447.516998 345.429810,448.252197 
	C344.633179,450.524261 343.836517,452.796326 343.017639,455.131775 
	C339.760834,454.024384 337.133057,452.583069 334.420380,452.399994 
	C332.595367,452.276855 330.650299,453.932892 328.758942,454.792999 
	C329.721466,456.613617 330.263367,459.505859 331.716583,460.076294 
	C339.584290,463.164429 347.618805,465.883392 355.745209,468.206970 
	C357.267853,468.642334 359.469116,466.704285 361.357239,465.861481 
	C360.394104,464.026520 359.880493,461.498230 358.364807,460.515594 
	C355.960510,458.956909 352.886414,458.431458 349.703247,457.333527 
	C350.687592,454.473389 351.558716,451.942230 352.500275,449.206421 
	C358.716309,454.592529 363.391571,455.565918 368.601166,452.502747 
	C373.809021,449.440613 376.831146,444.846405 377.085632,438.698273 
	C377.421814,430.575439 373.682343,423.862518 369.069855,417.705658 
	C361.584137,407.713593 363.844238,408.502319 351.639008,411.769562 
	C343.952545,413.827148 336.972198,417.346619 332.424377,424.251678 
	C328.973358,429.491364 328.479187,435.179382 331.475464,440.802032 
	C334.336792,446.171356 339.084137,447.891205 345.224762,447.236877 
M267.953796,294.478516 
	C276.544586,305.595581 287.359192,309.409454 301.389832,303.741913 
	C298.774384,311.432739 296.445435,318.281067 293.984619,325.517181 
	C287.112549,323.225800 280.695679,321.068726 274.267029,318.947296 
	C267.008453,316.551910 261.273254,318.590546 259.198578,324.267609 
	C256.971161,330.362640 260.095123,335.712128 267.492340,338.241821 
	C279.126373,342.220337 290.787048,346.120972 302.434692,350.059601 
	C309.831482,352.560791 317.185730,355.196533 324.632660,357.537811 
	C330.675140,359.437592 336.182281,356.721344 338.013367,351.292114 
	C339.874512,345.773651 337.165131,340.452026 331.257294,338.141022 
	C329.402832,337.415588 327.488190,336.844360 325.602234,336.199219 
	C320.347534,334.401672 315.093445,332.602325 309.715179,330.761261 
	C312.287750,323.222565 314.639465,316.331085 317.093018,309.141174 
	C328.959808,329.533600 351.423828,324.864258 362.573181,314.025940 
	C374.600433,302.334167 378.475189,288.284088 374.483124,272.042328 
	C369.831818,253.118484 358.854065,237.793350 347.085846,222.749649 
	C342.200134,216.504105 337.374176,215.020264 329.771637,216.857193 
	C311.173767,221.350830 293.189484,226.872574 278.280762,239.551910 
	C260.534027,254.644836 256.354889,275.863708 267.953796,294.478516 
M301.342834,111.209572 
	C298.793915,107.730377 296.386902,104.131584 293.613739,100.841431 
	C292.727356,99.789848 290.765442,98.863747 289.474915,99.059845 
	C280.667603,100.398155 272.318634,103.062073 265.507507,109.160019 
	C264.042267,110.471825 262.744812,112.064880 261.699921,113.734772 
	C258.589355,118.705864 257.916382,123.972153 260.546448,129.377029 
	C263.470612,135.386215 268.567413,137.191223 275.412537,135.937469 
	C274.328552,139.089554 273.481171,141.553665 272.537079,144.298889 
	C269.577362,143.344177 266.881470,142.569977 264.256989,141.602173 
	C261.417969,140.555252 258.727966,141.216812 258.354340,144.039490 
	C258.126068,145.763672 259.966583,148.888062 261.610260,149.541473 
	C269.307404,152.601364 277.198181,155.236511 285.171753,157.484467 
	C286.718536,157.920547 288.942230,155.955460 290.853699,155.097977 
	C289.856293,153.266479 289.298065,150.762131 287.760315,149.758377 
	C285.348511,148.184052 282.275513,147.622620 279.220978,146.539444 
	C280.187012,143.631363 281.065430,140.986984 282.102325,137.865555 
	C286.123047,143.324020 290.992188,144.687256 296.765808,142.308258 
	C303.144623,139.679932 307.720978,132.244461 306.417877,125.362419 
	C305.538879,120.720230 303.357117,116.324730 301.342834,111.209572 
z"/>
<path fill="#DBDBDB" opacity="1.000000" stroke="none" 
	d="
M279.066040,73.485428 
	C268.093018,73.223236 258.354156,76.538033 252.150787,85.714996 
	C248.076202,91.742729 245.696060,99.045059 243.251068,106.019852 
	C237.002762,123.844131 231.150177,141.807022 225.120865,159.708267 
	C224.015091,162.991364 222.822479,166.245193 221.244278,169.461960 
	C217.864578,165.006622 215.400726,160.153397 211.860931,156.284546 
	C202.703888,146.276276 191.198151,141.430634 177.689972,144.699371 
	C164.005096,148.010880 156.904572,158.221375 153.114471,171.134171 
	C152.761841,172.335556 152.394226,173.532532 151.711792,175.801300 
	C150.933304,173.165405 150.725494,171.500748 149.984894,170.122330 
	C146.944824,164.464096 144.644730,158.072769 140.433655,153.441071 
	C126.900078,138.555634 103.309021,141.172607 89.450836,158.472183 
	C74.556984,177.064606 74.061394,201.625473 88.603569,223.016724 
	C104.083427,245.787338 125.835464,261.253235 149.708374,274.031464 
	C151.029160,274.738434 153.694061,274.290588 155.047318,273.370880 
	C168.780869,264.037170 182.371628,254.493362 196.002411,245.008453 
	C193.224274,253.832077 190.575943,262.699127 187.641846,271.470612 
	C180.852539,291.767181 173.903397,312.010254 167.059326,332.288605 
	C160.169434,352.702698 153.328247,373.133209 146.182526,393.798401 
	C114.576492,394.026978 83.253639,394.003021 51.930782,394.005157 
	C37.748837,394.006165 25.015614,380.987122 25.012537,367.282043 
	C24.988930,262.149750 24.996777,157.017441 25.003225,51.885132 
	C25.004084,37.908638 37.879238,25.005516 51.829350,25.003674 
	C118.640846,24.994843 185.452347,25.010210 252.263840,24.989159 
	C263.605560,24.985586 276.516296,35.585503 277.872742,47.311951 
	C278.856018,55.812435 278.673767,64.447739 279.066040,73.485428 
M72.014877,79.540184 
	C78.902893,74.715157 85.534042,69.627609 87.469238,60.781200 
	C88.789909,54.744003 85.099144,47.557945 79.823013,45.391350 
	C74.487427,43.200340 70.526833,45.075966 66.562370,51.629021 
	C66.468666,51.783913 65.998535,51.711086 65.599220,51.756348 
	C63.471664,46.921181 60.202557,43.822124 54.409718,44.840721 
	C49.765800,45.657295 46.009109,49.828522 44.906151,55.224617 
	C43.863113,60.327553 45.010059,65.033180 48.408058,68.723625 
	C52.092411,72.725067 56.411354,76.148170 60.506100,79.763977 
	C64.057503,82.899994 67.719765,83.528114 72.014877,79.540184 
z"/>
<path fill="#F34725" opacity="1.000000" stroke="none" 
	d="
M196.141739,244.675781 
	C182.371628,254.493362 168.780869,264.037170 155.047318,273.370880 
	C153.694061,274.290588 151.029160,274.738434 149.708374,274.031464 
	C125.835464,261.253235 104.083427,245.787338 88.603569,223.016724 
	C74.061394,201.625473 74.556984,177.064606 89.450836,158.472183 
	C103.309021,141.172607 126.900078,138.555634 140.433655,153.441071 
	C144.644730,158.072769 146.944824,164.464096 149.984894,170.122330 
	C150.725494,171.500748 150.933304,173.165405 151.711792,175.801300 
	C152.394226,173.532532 152.761841,172.335556 153.114471,171.134171 
	C156.904572,158.221375 164.005096,148.010880 177.689972,144.699371 
	C191.198151,141.430634 202.703888,146.276276 211.860931,156.284546 
	C215.400726,160.153397 217.864578,165.006622 221.001709,169.715790 
	C217.894699,180.247879 214.714981,190.512726 211.288132,200.694397 
	C206.380432,215.275833 201.292221,229.796509 196.141739,244.675781 
z"/>
<path fill="#2D3743" opacity="1.000000" stroke="none" 
	d="
M267.741974,294.187683 
	C256.354889,275.863708 260.534027,254.644836 278.280762,239.551910 
	C293.189484,226.872574 311.173767,221.350830 329.771637,216.857193 
	C337.374176,215.020264 342.200134,216.504105 347.085846,222.749649 
	C358.854065,237.793350 369.831818,253.118484 374.483124,272.042328 
	C378.475189,288.284088 374.600433,302.334167 362.573181,314.025940 
	C351.423828,324.864258 328.959808,329.533600 317.093018,309.141174 
	C314.639465,316.331085 312.287750,323.222565 309.715179,330.761261 
	C315.093445,332.602325 320.347534,334.401672 325.602234,336.199219 
	C327.488190,336.844360 329.402832,337.415588 331.257294,338.141022 
	C337.165131,340.452026 339.874512,345.773651 338.013367,351.292114 
	C336.182281,356.721344 330.675140,359.437592 324.632660,357.537811 
	C317.185730,355.196533 309.831482,352.560791 302.434692,350.059601 
	C290.787048,346.120972 279.126373,342.220337 267.492340,338.241821 
	C260.095123,335.712128 256.971161,330.362640 259.198578,324.267609 
	C261.273254,318.590546 267.008453,316.551910 274.267029,318.947296 
	C280.695679,321.068726 287.112549,323.225800 293.984619,325.517181 
	C296.445435,318.281067 298.774384,311.432739 301.389832,303.741913 
	C287.359192,309.409454 276.544586,305.595581 267.741974,294.187683 
z"/>
<path fill="#2F3944" opacity="1.000000" stroke="none" 
	d="
M301.550476,111.514221 
	C303.357117,116.324730 305.538879,120.720230 306.417877,125.362419 
	C307.720978,132.244461 303.144623,139.679932 296.765808,142.308258 
	C290.992188,144.687256 286.123047,143.324020 282.102325,137.865555 
	C281.065430,140.986984 280.187012,143.631363 279.220978,146.539444 
	C282.275513,147.622620 285.348511,148.184052 287.760315,149.758377 
	C289.298065,150.762131 289.856293,153.266479 290.853699,155.097977 
	C288.942230,155.955460 286.718536,157.920547 285.171753,157.484467 
	C277.198181,155.236511 269.307404,152.601364 261.610260,149.541473 
	C259.966583,148.888062 258.126068,145.763672 258.354340,144.039490 
	C258.727966,141.216812 261.417969,140.555252 264.256989,141.602173 
	C266.881470,142.569977 269.577362,143.344177 272.537079,144.298889 
	C273.481171,141.553665 274.328552,139.089554 275.412537,135.937469 
	C268.567413,137.191223 263.470612,135.386215 260.546448,129.377029 
	C257.916382,123.972153 258.589355,118.705864 261.699921,113.734772 
	C262.744812,112.064880 264.042267,110.471825 265.507507,109.160019 
	C272.318634,103.062073 280.667603,100.398155 289.474915,99.059845 
	C290.765442,98.863747 292.727356,99.789848 293.613739,100.841431 
	C296.386902,104.131584 298.793915,107.730377 301.550476,111.514221 
z"/>
<path fill="#2F3944" opacity="1.000000" stroke="none" 
	d="
M344.940430,446.934174 
	C339.084137,447.891205 334.336792,446.171356 331.475464,440.802032 
	C328.479187,435.179382 328.973358,429.491364 332.424377,424.251678 
	C336.972198,417.346619 343.952545,413.827148 351.639008,411.769562 
	C363.844238,408.502319 361.584137,407.713593 369.069855,417.705658 
	C373.682343,423.862518 377.421814,430.575439 377.085632,438.698273 
	C376.831146,444.846405 373.809021,449.440613 368.601166,452.502747 
	C363.391571,455.565918 358.716309,454.592529 352.500275,449.206421 
	C351.558716,451.942230 350.687592,454.473389 349.703247,457.333527 
	C352.886414,458.431458 355.960510,458.956909 358.364807,460.515594 
	C359.880493,461.498230 360.394104,464.026520 361.357239,465.861481 
	C359.469116,466.704285 357.267853,468.642334 355.745209,468.206970 
	C347.618805,465.883392 339.584290,463.164429 331.716583,460.076294 
	C330.263367,459.505859 329.721466,456.613617 328.758942,454.792969 
	C330.650299,453.932892 332.595367,452.276855 334.420380,452.399994 
	C337.133057,452.583069 339.760834,454.024384 343.017639,455.131775 
	C343.836517,452.796326 344.633179,450.524261 345.595459,447.688843 
	C345.672241,446.854736 345.583405,446.584015 345.494537,446.313293 
	C345.309814,446.520233 345.125122,446.727203 344.940430,446.934174 
z"/>
<path fill="#F34827" opacity="1.000000" stroke="none" 
	d="
M71.715027,79.741150 
	C67.719765,83.528114 64.057503,82.899994 60.506100,79.763977 
	C56.411354,76.148170 52.092411,72.725067 48.408058,68.723625 
	C45.010059,65.033180 43.863113,60.327553 44.906151,55.224617 
	C46.009109,49.828522 49.765800,45.657295 54.409718,44.840721 
	C60.202557,43.822124 63.471664,46.921181 65.599220,51.756348 
	C65.998535,51.711086 66.468666,51.783913 66.562370,51.629021 
	C70.526833,45.075966 74.487427,43.200340 79.823013,45.391350 
	C85.099144,47.557945 88.789909,54.744003 87.469238,60.781200 
	C85.534042,69.627609 78.902893,74.715157 71.715027,79.741150 
z"/>
<path fill="#EDEDED" opacity="1.000000" stroke="none" 
	d="
M345.082581,447.085510 
	C345.125122,446.727203 345.309814,446.520233 345.494537,446.313293 
	C345.583405,446.584015 345.672241,446.854736 345.646240,447.321228 
	C345.531403,447.516998 345.224762,447.236877 345.082581,447.085510 
z"/>
</svg>